<?xml version="1.0" standalone="no"?>
<!DOCTYPE svg PUBLIC "-//W3C//DTD SVG 1.1//EN" "http://www.w3.org/Graphics/SVG/1.1/DTD/svg11.dtd">
<svg version="1.1" xmlns="http://www.w3.org/2000/svg" viewBox="0 0 3250.1229156109584 3086.4602516014074" width="9750.368746832875" height="9259.380754804222"><!-- svg-source:excalidraw --><metadata></metadata><defs><style class="style-fonts">
      </style></defs><rect x="0" y="0" width="3250.1229156109584" height="3086.4602516014074" fill="#f8f9fa"></rect><g stroke-linecap="round"><g transform="translate(2700.4244787730495 15.399614601572466) rotate(0 2.755834503953338 -2.491646293487065)"><path d="M0.16 -0.23 C1.03 -1.12, 4.2 -4.5, 5.09 -5.4 M-0.19 0.42 C0.79 -0.41, 4.79 -3.97, 5.7 -4.93" stroke="#ff6633" stroke-width="2" fill="none"></path></g></g><mask></mask><g stroke-linecap="round"><g transform="translate(786.8023409637935 644.6854104239083) rotate(319.9000290350055 65.22486146433857 -13.406361947379082)" fill-rule="evenodd"><path d="M-0.46 -0.03 C11.65 -6.13, 39.26 -16.82, 70.71 -36.2 C102.17 -55.57, 165.62 -114.66, 188.28 -116.29 C210.93 -117.92, 209.41 -72.92, 206.64 -45.96 C203.88 -19.01, 189.6 23.27, 171.68 45.44 C153.77 67.61, 129.9 81.71, 99.14 87.07 C68.37 92.43, 16.17 87.62, -12.91 77.62 C-41.98 67.61, -77.83 40.28, -75.31 27.03 C-72.8 13.78, -10.45 2.42, 2.2 -1.89" stroke="none" stroke-width="0" fill="#ff6633" fill-rule="evenodd"></path><path d="M0.35 -1.16 C11.9 -6.45, 37.34 -13.55, 68.34 -32.64 C99.34 -51.73, 163.32 -113.54, 186.35 -115.68 C209.38 -117.81, 208.57 -72.81, 206.52 -45.44 C204.48 -18.07, 192.09 26.12, 174.09 48.53 C156.09 70.95, 129.81 84.19, 98.53 89.04 C67.25 93.89, 15.62 87.7, -13.62 77.62 C-42.86 67.55, -79.34 41.66, -76.91 28.59 C-74.47 15.53, -11.69 3.82, 1 -0.77 M-0.93 0.84 C10.55 -4.67, 36.24 -14.44, 67.35 -34.15 C98.46 -53.87, 162.58 -115.2, 185.74 -117.45 C208.89 -119.7, 208.47 -75.47, 206.3 -47.66 C204.14 -19.85, 190.51 26.79, 172.73 49.4 C154.96 72, 130.57 82.94, 99.63 87.97 C68.69 92.99, 16.13 89.54, -12.91 79.54 C-41.96 69.53, -76.74 41.01, -74.61 27.94 C-72.49 14.87, -12.52 5.57, -0.15 1.1" stroke="#ff6633" stroke-width="2" fill="none"></path></g></g><mask></mask><g stroke-linecap="round"><g transform="translate(2836.4357653224997 486.9054079730031) rotate(0 -8.09320287434548 -3.226986862388003)"><path d="M0.49 -0.18 C-2.31 -1.1, -13.83 -4.52, -16.67 -5.35 M0.07 -0.76 C-2.55 -1.86, -12.77 -5.38, -15.62 -6.27" stroke="#0e6a93" stroke-width="2" fill="none"></path></g></g><mask></mask><g stroke-linecap="round"><g transform="translate(1824.5117933945858 2300.3892286323444) rotate(0 -2.5806733196777714 -0.09383199212243198)"><path d="M0.25 0.17 C-0.64 0.16, -4.27 0.16, -5.24 0.17 M-0.05 -0.05 C-0.98 -0.19, -4.45 -0.31, -5.41 -0.36" stroke="#0e6a93" stroke-width="2" fill="none"></path></g></g><mask></mask><g stroke-linecap="round"><g transform="translate(2894.6806341583506 274.4523326425333) rotate(0 2.5264663348525573 -2.575592178066472)"><path d="M0 -0.2 C0.97 -1.19, 4.59 -4.74, 5.48 -5.62 M-0.43 0.47 C0.52 -0.32, 4.3 -4.33, 5.22 -5.26" stroke="#0e6a93" stroke-width="2" fill="none"></path></g></g><mask></mask><g stroke-linecap="round"><g transform="translate(2125.966469400544 2753.7851347239794) rotate(265.96508981034356 83.78176648025692 -14.615564038390403)" fill-rule="evenodd"><path d="M1.29 1.93 C17.47 -5.05, 59.12 -18.81, 98.54 -44.21 C137.95 -69.61, 209.78 -147.68, 237.76 -150.49 C265.75 -153.31, 269.27 -96.03, 266.45 -61.09 C263.63 -26.15, 243.58 29.45, 220.86 59.15 C198.13 88.85, 169.59 110.22, 130.1 117.08 C90.61 123.95, 21.59 113.58, -16.09 100.36 C-53.77 87.14, -98.71 54.81, -95.98 37.77 C-93.25 20.73, -16.06 4.44, 0.32 -1.87" stroke="none" stroke-width="0" fill="#ff6633" fill-rule="evenodd"></path><path d="M0.13 -0.6 C16.3 -7.7, 57.31 -18.6, 97.02 -43.23 C136.74 -67.86, 210.67 -145.62, 238.44 -148.41 C266.2 -151.19, 266.44 -94.74, 263.59 -59.93 C260.73 -25.12, 243.15 30.55, 221.29 60.44 C199.43 90.32, 172.17 112.67, 132.41 119.37 C92.64 126.06, 20.85 114.45, -17.3 100.61 C-55.44 86.77, -99.29 52.98, -96.48 36.33 C-93.66 19.67, -16.39 6.53, -0.43 0.67 M-1.26 1.7 C14.73 -5.14, 56.02 -16.39, 95.93 -41.75 C135.84 -67.1, 210.31 -147.5, 238.2 -150.44 C266.09 -153.38, 265.77 -94.59, 263.26 -59.41 C260.76 -24.23, 245.29 31.04, 223.18 60.65 C201.07 90.26, 170.56 111.76, 130.61 118.25 C90.66 124.74, 21.41 113.37, -16.54 99.58 C-54.49 85.79, -100.05 52.16, -97.07 35.5 C-94.09 18.85, -14.79 5.34, 1.33 -0.36" stroke="#ff6633" stroke-width="2" fill="none"></path></g></g><mask></mask><g stroke-linecap="round" transform="translate(1389.5039659297818 2634.5392657774737) rotate(0 363.0065240696613 220.96049291196687)"><path d="M455 55.25 C509.91 87.47, 561.25 123.19, 635.01 165.75 C723.32 223.27, 727.68 224.18, 635.01 276.25 C581.21 311.93, 521.64 346.85, 455 386.67 C361.63 444.12, 360.88 442.02, 273 386.67 C208.74 353.89, 146.83 311.63, 91 276.25 C-2.91 220.93, -1.17 222.58, 91 165.75 C124.71 138.75, 168.04 119.45, 273 55.25 C361.83 3.23, 365.15 -2.86, 455 55.25" stroke="none" stroke-width="0" fill="#4b210c"></path><path d="M455 55.25 C507.47 87.41, 557.05 118.7, 635.01 165.75 M455 55.25 C507.17 85.77, 560.36 117.62, 635.01 165.75 M635.01 165.75 C726.47 219.83, 725.59 221.95, 635.01 276.25 M635.01 165.75 C725.18 222.61, 727.39 220.9, 635.01 276.25 M635.01 276.25 C593.33 305.41, 549.36 330.53, 455 386.67 M635.01 276.25 C591.11 304.23, 545.82 331.69, 455 386.67 M455 386.67 C365.35 442.51, 362.17 441.71, 273 386.67 M455 386.67 C363.94 440.96, 363.35 442.79, 273 386.67 M273 386.67 C205.42 346.64, 138.17 305.29, 91 276.25 M273 386.67 C202.64 344.08, 132.2 300.9, 91 276.25 M91 276.25 C1.29 221.49, 0.11 222.81, 91 165.75 M91 276.25 C1.67 223.01, -1.65 222.49, 91 165.75 M91 165.75 C153.94 130.47, 214.71 93.31, 273 55.25 M91 165.75 C148.44 129.75, 206.27 95.32, 273 55.25 M273 55.25 C364.65 -1.64, 362.65 -0.13, 455 55.25 M273 55.25 C365.24 2.22, 362.91 1.25, 455 55.25" stroke="#4b210c" stroke-width="4" fill="none"></path></g><g stroke-linecap="round"><g transform="translate(954.6546936049763 2533.5264007653623) rotate(324.686612863728 48.39537118705357 -112.03747674714486)" fill-rule="evenodd"><path d="M-0.52 1.17 C36.38 -12.65, 241.69 -47.01, 221.98 -84.31 C202.26 -121.61, -81.6 -236.84, -118.83 -222.65 C-156.06 -208.46, -21.61 -36.68, -1.4 0.82" stroke="none" stroke-width="0" fill="#4b210c" fill-rule="evenodd"></path><path d="M-0.23 -0.33 C36.98 -14.83, 242.47 -49.27, 222.49 -86.12 C202.52 -122.98, -82.85 -235.73, -120.08 -221.46 C-157.31 -207.19, -20.88 -37.22, -0.89 -0.49 M-1.8 -1.55 C35.28 -15.93, 241.17 -47.68, 221.35 -84.63 C201.53 -121.58, -83.65 -237.4, -120.73 -223.23 C-157.81 -209.07, -20.95 -36.64, -1.1 0.35" stroke="#4b210c" stroke-width="2" fill="none"></path></g></g><mask></mask><g stroke-linecap="round"><g transform="translate(2677.3881063622284 1817.5351344440405) rotate(350.2114067806515 -199.4342453202862 407.2550707403907)" fill-rule="evenodd"><path d="M-0.06 -1.63 C-3.37 29.13, -2.31 95.3, -18.61 186.83 C-34.91 278.36, -64.72 459.27, -97.86 547.53 C-131 635.8, -168.42 672.05, -217.44 716.43 C-266.46 760.82, -371.3 804.23, -391.97 813.82 C-412.64 823.42, -381.45 805.99, -341.46 774.02 C-301.48 742.04, -197.12 692.71, -152.04 621.98 C-106.95 551.25, -90.34 422.13, -70.97 349.63 C-51.59 277.13, -45.59 241.65, -35.8 186.97 C-26.01 132.29, -18.37 52.46, -12.21 21.55 C-6.06 -9.36, -0.9 4.96, 1.14 1.52" stroke="none" stroke-width="0" fill="#ff6633" fill-rule="evenodd"></path><path d="M-0.03 0.97 C-3.72 31.95, -5.87 95.83, -21.81 186.7 C-37.76 277.57, -63.02 457.79, -95.7 546.18 C-128.38 634.57, -168.43 672.84, -217.9 717.06 C-267.37 761.27, -372.09 801.84, -392.52 811.48 C-412.95 821.11, -380.07 806.7, -340.5 774.85 C-300.92 743, -199.86 690.92, -155.08 620.36 C-110.31 549.79, -92.03 423.89, -71.84 351.45 C-51.66 279.02, -43.42 240.46, -33.98 185.75 C-24.54 131.03, -20.93 54.19, -15.21 23.17 C-9.5 -7.86, -2.16 3.37, 0.3 -0.4 M-1.5 0.43 C-4.88 31.51, -3.93 97.33, -19.72 187.99 C-35.52 278.65, -63.35 456.01, -96.26 544.41 C-129.17 632.8, -167.63 673.82, -217.19 718.36 C-266.75 762.9, -373.24 801.87, -393.62 811.65 C-414.01 821.42, -379.29 809.07, -339.51 777.01 C-299.73 744.95, -199.47 690.3, -154.94 619.29 C-110.42 548.28, -92.32 422.89, -72.35 350.95 C-52.39 279.01, -44.73 242.39, -35.14 187.67 C-25.54 132.95, -20.78 53.83, -14.79 22.61 C-8.81 -8.6, -1.95 4.07, 0.78 0.37" stroke="#ff6633" stroke-width="4" fill="none"></path></g></g><mask></mask><g stroke-linecap="round"><g transform="translate(1388.3345253435455 2526.129365660099) rotate(90.7139157489138 -158.46749362851824 211.10708307851655)" fill-rule="evenodd"><path d="M0.04 2.36 C-1.93 18.57, -1.85 48.41, -14.24 94.81 C-26.64 141.21, -47.84 234.72, -74.31 280.74 C-100.79 326.77, -133.61 347.58, -173.12 370.93 C-212.63 394.29, -294.87 415.42, -311.38 420.85 C-327.88 426.28, -303.52 420.19, -272.16 403.52 C-240.79 386.86, -158.6 357.69, -123.18 320.87 C-87.76 284.05, -75.67 219.87, -59.64 182.62 C-43.62 145.37, -35.1 125.81, -27.01 97.37 C-18.92 68.93, -15.91 28.27, -11.08 11.99 C-6.26 -4.29, 0.06 1.54, 1.96 -0.31" stroke="none" stroke-width="0" fill="#4b210c" fill-rule="evenodd"></path><path d="M-0.56 -0.81 C-3.28 15.7, -4.79 50.72, -17.28 98.1 C-29.78 145.48, -49.48 237.66, -75.53 283.46 C-101.59 329.27, -134.08 349.87, -173.6 372.94 C-213.12 396.02, -296.48 416.89, -312.65 421.89 C-328.82 426.89, -302.1 419.61, -270.62 402.93 C-239.14 386.26, -159.33 358.39, -123.77 321.85 C-88.21 285.32, -73.08 221.38, -57.24 183.73 C-41.4 146.07, -36.27 124.6, -28.75 95.91 C-21.23 67.22, -16.83 27.47, -12.13 11.58 C-7.43 -4.31, -2.61 2.6, -0.56 0.56 M1.35 1.38 C-0.92 17.65, -2.16 49.8, -15.01 96.47 C-27.86 143.14, -49.43 235.67, -75.75 281.4 C-102.07 327.14, -133.29 347.37, -172.95 370.89 C-212.61 394.41, -297.69 417.34, -313.72 422.54 C-329.75 427.73, -300.83 419.04, -269.14 402.05 C-237.46 385.06, -158.83 356.92, -123.62 320.58 C-88.4 284.23, -73.91 221.13, -57.84 183.99 C-41.78 146.84, -34.93 126.59, -27.23 97.73 C-19.53 68.88, -16.09 27.44, -11.64 10.85 C-7.19 -5.75, -2.29 0.22, -0.54 -1.82" stroke="#4b210c" stroke-width="4" fill="none"></path></g></g><mask></mask><g stroke-linecap="round"><g transform="translate(1152.5248245379098 872.8112228217851) rotate(0 428.68563716639073 428.6969312911724)" fill-rule="evenodd"><path d="M1.38 -1.73 C54.12 79.84, 218.25 336.21, 316.88 487.58 C415.51 638.96, 494.49 814.86, 593.15 906.53 C691.81 998.21, 837.48 1060.53, 908.83 1037.62 C980.19 1014.72, 1018.96 779.44, 1021.27 769.09 C1023.57 758.74, 963.36 937.67, 922.67 975.54 C881.97 1013.41, 832.33 1015.54, 777.1 996.3 C721.86 977.06, 652.11 931.27, 591.28 860.1 C530.44 788.93, 467.06 659.6, 412.09 569.3 C357.12 479, 309.9 393.45, 261.44 318.3 C212.98 243.15, 191.89 201.82, 121.33 118.37 C50.76 34.93, -141.83 -162.4, -161.95 -182.36 C-182.06 -202.32, -26.39 -31.85, 0.62 -1.36" stroke="none" stroke-width="0" fill="#ff6633" fill-rule="evenodd"></path><path d="M0.61 1.03 C53.43 82.16, 219.42 336.63, 317.77 487.78 C416.12 638.93, 492.55 816.76, 590.69 907.92 C688.83 999.07, 835.38 1057.93, 906.61 1034.7 C977.85 1011.48, 1014.92 778.62, 1018.09 768.55 C1021.26 758.48, 966.12 936.28, 925.63 974.28 C885.14 1012.28, 830.4 1015.5, 775.16 996.56 C719.91 977.62, 654.48 932.3, 594.18 860.63 C533.87 788.97, 469.15 656.57, 413.31 566.58 C357.48 476.59, 308.17 395.28, 259.19 320.7 C210.2 246.12, 189.4 202.66, 119.41 119.11 C49.43 35.55, -140.73 -160.72, -160.73 -180.62 C-180.74 -200.53, -27.28 -30.57, -0.61 -0.31 M-0.53 0.53 C52.05 81.22, 218.4 335.03, 316.77 485.98 C415.14 636.92, 491.37 814.61, 589.67 906.2 C687.96 997.8, 834.85 1058.51, 906.53 1035.55 C978.22 1012.59, 1016.93 778.83, 1019.79 768.44 C1022.65 758.04, 964.42 935.31, 923.69 973.2 C882.97 1011.09, 830.43 1014.63, 775.43 995.76 C720.43 976.89, 654.23 931.19, 593.7 860 C533.17 788.81, 467.94 658.52, 412.25 568.62 C356.55 478.72, 308.33 395.45, 259.53 320.62 C210.73 245.78, 189.16 203.29, 119.43 119.62 C49.69 35.96, -138.85 -161.22, -158.87 -181.37 C-178.89 -201.53, -26.88 -31.73, -0.69 -1.29" stroke="#ff6633" stroke-width="4" fill="none"></path></g></g><mask></mask><g stroke-linecap="round"><g transform="translate(2439.0784136609436 1276.9113040725442) rotate(0 62.85036734469759 249.2072166837679)" fill-rule="evenodd"><path d="M0.04 -0.78 C64.28 69.13, 429.42 344.4, 387.1 421.51 C344.78 498.61, -189.13 531.95, -253.89 461.87 C-318.66 391.79, -43.47 77.97, -1.48 1.03" stroke="none" stroke-width="0" fill="#ff6633" fill-rule="evenodd"></path><path d="M-0.53 -0.31 C63.96 69.53, 430.59 342.59, 388.13 419.41 C345.68 496.22, -190.49 530.34, -255.26 460.61 C-320.04 390.87, -43.09 77.7, -0.52 0.98 M1.39 -1.51 C65.6 68.45, 429.95 343.51, 387.03 420.7 C344.1 497.89, -191.55 531.92, -256.15 461.63 C-320.74 391.34, -43.03 75.74, -0.54 -1.06" stroke="#ff6633" stroke-width="2" fill="none"></path></g></g><mask></mask><g stroke-linecap="round"><g transform="translate(1953.0108476208807 402.2296497201987) rotate(347.9240040636673 -46.567132307756765 72.58615746907162)" fill-rule="evenodd"><path d="M0.59 -1.79 C50.03 -29.23, 272.04 -161.56, 297.01 -166.2 C321.99 -170.85, 185.66 -68.12, 150.43 -29.65 C115.21 8.83, 78.47 36.16, 85.67 64.64 C92.88 93.13, 156.18 121.74, 193.67 141.26 C231.16 160.78, 316.84 176.7, 310.6 181.76 C304.37 186.82, 206.76 179.48, 156.29 171.63 C105.81 163.78, 28.46 117.62, 7.76 134.66 C-12.93 151.7, 27.72 231.24, 32.13 273.87 C36.55 316.5, 47.11 407.52, 34.26 390.42 C21.4 373.32, -25.79 213.3, -45 171.28 C-64.21 129.26, -64.97 138, -81 138.3 C-97.03 138.59, -103.46 143.48, -141.18 173.05 C-178.91 202.62, -292.93 309.5, -307.35 315.74 C-321.77 321.98, -256.05 245.73, -227.7 210.49 C-199.35 175.26, -154.64 127.2, -137.25 104.32 C-119.86 81.44, -103.37 78.4, -123.36 73.22 C-143.35 68.04, -210.29 78.28, -257.19 73.24 C-304.09 68.2, -412.84 48.06, -404.77 43 C-396.71 37.94, -260.15 48.5, -208.8 42.89 C-157.44 37.28, -110.68 37.1, -96.63 9.34 C-82.59 -18.43, -115.34 -80.97, -124.5 -123.7 C-133.66 -166.44, -158.62 -244.73, -151.58 -247.07 C-144.54 -249.41, -107.48 -178.77, -82.24 -137.74 C-57 -96.71, -13.84 -23.52, -0.13 -0.89" stroke="none" stroke-width="0" fill="#ff6633" fill-rule="evenodd"></path><path d="M-0.3 -0.46 C48.95 -28.02, 269.77 -160.71, 294.98 -165.62 C320.2 -170.52, 185.98 -68.27, 150.97 -29.88 C115.96 8.51, 77.76 35.85, 84.93 64.7 C92.09 93.55, 156.45 123.96, 193.95 143.23 C231.45 162.49, 316.16 175.39, 309.95 180.27 C303.73 185.16, 206.81 180.15, 156.64 172.54 C106.47 164.94, 30.06 117.49, 8.9 134.67 C-12.26 151.85, 25.34 232.88, 29.68 275.61 C34.03 318.34, 47.07 408.3, 34.97 391.06 C22.86 373.81, -23.73 214.37, -42.96 172.13 C-62.2 129.89, -63.96 137.15, -80.44 137.62 C-96.92 138.09, -103.82 144.99, -141.82 174.94 C-179.83 204.9, -293.86 311.06, -308.48 317.36 C-323.1 323.65, -258.55 248.41, -229.56 212.71 C-200.57 177.01, -152.12 126.56, -134.53 103.16 C-116.94 79.76, -103.6 77.1, -124.01 72.32 C-144.42 67.53, -210.26 79.64, -257 74.46 C-303.73 69.27, -412.11 46.48, -404.41 41.19 C-396.71 35.9, -261.8 48.42, -210.81 42.73 C-159.83 37.04, -112.64 35.26, -98.51 7.05 C-84.38 -21.15, -116.89 -84.04, -126.05 -126.5 C-135.2 -168.96, -160.85 -246.06, -153.44 -247.72 C-146.02 -249.38, -107.23 -177.58, -81.54 -136.45 C-55.86 -95.32, -12.83 -23.73, 0.66 -0.96 M1.74 -1.75 C50.86 -29.12, 269.21 -159.38, 293.91 -164.37 C318.61 -169.36, 184.71 -70.09, 149.94 -31.7 C115.16 6.68, 78.11 37.26, 85.27 65.96 C92.43 94.66, 155.23 121.64, 192.91 140.48 C230.59 159.33, 317.36 173.84, 311.37 179.03 C305.37 184.22, 207.47 179.04, 156.94 171.62 C106.41 164.2, 29.11 117.36, 8.16 134.51 C-12.78 151.65, 26.78 231.8, 31.29 274.49 C35.8 317.18, 47.54 407.53, 35.23 390.67 C22.93 373.81, -23.6 215.59, -42.54 173.32 C-61.49 131.05, -62.01 136.96, -78.46 137.06 C-94.92 137.16, -102.76 143.95, -141.26 173.93 C-179.76 203.9, -294.74 310.53, -309.46 316.9 C-324.18 323.27, -258.39 248.13, -229.58 212.14 C-200.78 176.16, -154.14 124.19, -136.65 100.98 C-119.16 77.77, -104.95 77.2, -124.66 72.9 C-144.37 68.61, -208.58 80.49, -254.9 75.2 C-301.22 69.92, -409.97 46.37, -402.57 41.21 C-395.17 36.04, -260.98 49.58, -210.5 44.23 C-160.02 38.89, -113.81 37.26, -99.7 9.14 C-85.59 -18.99, -116.88 -81.67, -125.84 -124.53 C-134.79 -167.38, -160.49 -245.88, -153.43 -248.01 C-146.36 -250.14, -108.86 -178.43, -83.45 -137.29 C-58.05 -96.15, -14.94 -24.08, -1 -1.17" stroke="#ff6633" stroke-width="2" fill="none"></path></g></g><mask></mask><g stroke-linecap="round"><g transform="translate(2362.465384548417 497.9634985669272) rotate(311.068570714794 -158.01795458568358 399.98551175829743)" fill-rule="evenodd"><path d="M-1.38 -0.04 C-4.24 32.12, -3.17 99.28, -18.23 191.9 C-33.29 284.53, -59.87 463.91, -91.74 555.71 C-123.61 647.51, -172.07 702.26, -209.46 742.72 C-246.84 783.17, -317.31 806.83, -316.04 798.44 C-314.77 790.06, -233.29 727.77, -201.85 692.4 C-170.42 657.03, -149.14 641.99, -127.43 586.21 C-105.72 530.43, -87.16 423.33, -71.61 357.72 C-56.06 292.1, -43.76 248.12, -34.13 192.51 C-24.49 136.9, -19.71 56.46, -13.79 24.05 C-7.88 -8.36, -0.74 1.98, 1.35 -1.95" stroke="none" stroke-width="0" fill="#ff6633" fill-rule="evenodd"></path><path d="M-0.23 -0.56 C-3.63 31.52, -5.1 99.15, -20.71 192.02 C-36.32 284.88, -62.77 464.93, -93.91 556.64 C-125.05 648.34, -170.81 701.85, -207.55 742.25 C-244.29 782.64, -315.28 806.94, -314.33 799.01 C-313.38 791.07, -233.16 729.81, -201.85 694.65 C-170.54 659.5, -148.11 643.93, -126.48 588.08 C-104.84 532.22, -87.25 425.81, -72.04 359.53 C-56.82 293.25, -44.85 246.28, -35.19 190.4 C-25.52 134.52, -19.84 56.01, -14.06 24.24 C-8.28 -7.54, -2.96 3.84, -0.51 -0.26 M-1.81 1.77 C-5.39 33.57, -6.47 97.69, -21.93 190.41 C-37.39 283.13, -63.75 466.47, -94.58 558.11 C-125.4 649.74, -170.01 700.04, -206.88 740.22 C-243.75 780.4, -316.81 806.89, -315.79 799.2 C-314.78 791.5, -232.49 729.41, -200.78 694.03 C-169.07 658.65, -147.38 642.68, -125.54 586.91 C-103.71 531.15, -85.09 425.76, -69.78 359.46 C-54.48 293.15, -43.13 244.99, -33.7 189.08 C-24.27 133.17, -18.74 55.4, -13.2 23.99 C-7.66 -7.43, -2.59 4.74, -0.46 0.58" stroke="#ff6633" stroke-width="4" fill="none"></path></g></g><mask></mask><g stroke-linecap="round"><g transform="translate(2707.422121363543 1305.1716219163009) rotate(0 176.6385463470806 -92.41379248010071)" fill-rule="evenodd"><path d="M1.29 -0.74 C61.33 -34.95, 285.47 -164.36, 359.25 -205.76 C433.03 -247.17, 451.31 -256.58, 443.96 -249.16 C436.62 -241.74, 362.52 -191.34, 315.18 -161.26 C267.83 -131.18, 212.11 -98.76, 159.89 -68.68 C107.66 -38.59, 44.4 -3.18, 1.84 19.24 C-40.73 41.65, -95.07 69.24, -95.49 65.79 C-95.9 62.34, -16.51 9.77, -0.66 -1.45" stroke="none" stroke-width="0" fill="#ff6633" fill-rule="evenodd"></path><path d="M-0.52 0.98 C59.6 -32.99, 286.05 -162.91, 360.49 -204.43 C434.94 -245.95, 454.04 -255.1, 446.16 -248.12 C438.28 -241.13, 361.45 -192.66, 313.23 -162.51 C265.02 -132.37, 208.51 -97.34, 156.88 -67.24 C105.26 -37.13, 45.38 -4.31, 3.48 18.1 C-38.42 40.52, -93.78 70.24, -94.52 67.24 C-95.26 64.25, -16.74 11.27, -0.96 0.13 M1.41 0.46 C61.41 -33.86, 285.57 -164.67, 359.64 -206.4 C433.71 -248.13, 453.52 -257.4, 445.82 -249.93 C438.13 -242.47, 361.34 -192.19, 313.49 -161.61 C265.64 -131.02, 210.72 -96.23, 158.73 -66.42 C106.73 -36.61, 43.69 -4.85, 1.53 17.25 C-40.64 39.34, -94.2 69.06, -94.26 66.16 C-94.32 63.26, -14.31 11.01, 1.17 -0.15" stroke="#ff6633" stroke-width="4" fill="none"></path></g></g><mask></mask><g stroke-linecap="round"><g transform="translate(2175.9279761948274 1396.0007255974142) rotate(0 -177.32406301488209 -92.19977974646554)" fill-rule="evenodd"><path d="M-1.07 -1.04 C-61.56 -35.05, -287.97 -163.55, -361.69 -204.76 C-435.41 -245.96, -451.85 -255.25, -443.38 -248.25 C-434.9 -241.26, -358.32 -193.05, -310.86 -162.77 C-263.4 -132.49, -209.66 -96.49, -158.62 -66.56 C-107.58 -36.63, -46.57 -5.16, -4.61 16.81 C37.35 38.79, 92.44 68.34, 93.14 65.29 C93.85 62.23, 15.18 9.58, -0.39 -1.52" stroke="none" stroke-width="0" fill="#ff6633" fill-rule="evenodd"></path><path d="M0.18 0.29 C-59.65 -33.83, -285.24 -162.08, -359.49 -203.71 C-433.74 -245.35, -452.93 -256.57, -445.32 -249.51 C-437.72 -242.44, -361.92 -191.63, -313.87 -161.33 C-265.81 -131.03, -208.68 -97.62, -156.98 -67.69 C-105.28 -37.76, -45.29 -4.16, -3.65 18.26 C37.99 40.69, 92.2 69.84, 92.84 66.86 C93.48 63.88, 15.75 11.57, 0.19 0.39 M-1.18 -0.6 C-61.05 -35.12, -285.86 -164.01, -360.01 -205.31 C-434.16 -246.61, -453.75 -255.36, -446.08 -248.39 C-438.4 -241.41, -361.95 -193.68, -313.96 -163.47 C-265.98 -133.25, -210.05 -97.28, -158.16 -67.12 C-106.27 -36.96, -44.47 -4.63, -2.62 17.49 C39.24 39.61, 92.67 68.46, 92.98 65.58 C93.29 62.71, 14.55 11.48, -0.74 0.25" stroke="#ff6633" stroke-width="4" fill="none"></path></g></g><mask></mask><g stroke-linecap="round"><g transform="translate(2793.781139751398 1844.1736964238353) rotate(0 176.36398218847262 92.081606303419)" fill-rule="evenodd"><path d="M-1.38 -0.04 C59.18 34.4, 287.43 164.17, 362.28 205.59 C437.12 247.01, 456.05 255.48, 447.69 248.48 C439.33 241.49, 360.77 193.84, 312.13 163.61 C263.49 133.38, 207.49 97.56, 155.85 67.09 C104.2 36.62, 43.94 3.35, 2.27 -19.21 C-39.41 -41.76, -93.76 -71.23, -94.19 -68.25 C-94.62 -65.27, -16.01 -13.06, -0.3 -1.31" stroke="none" stroke-width="0" fill="#ff6633" fill-rule="evenodd"></path><path d="M0.82 1.01 C60.84 35.01, 286.35 162.85, 360.33 204.34 C434.31 245.83, 452.45 256.9, 444.69 249.93 C436.93 242.95, 361.75 192.71, 313.77 162.48 C265.79 132.25, 208.78 98.56, 156.81 68.54 C104.84 38.53, 43.7 4.85, 1.96 -17.63 C-39.77 -40.11, -93.2 -69.24, -93.61 -66.35 C-94.03 -63.45, -16.22 -11.26, -0.51 -0.26 M-0.21 0.49 C59.64 34.64, 285.43 164.42, 359.39 205.68 C433.36 246.93, 451.09 254.99, 443.58 248 C436.06 241.02, 361.8 193.57, 314.31 163.77 C266.82 133.97, 210.52 99.6, 158.62 69.2 C106.71 38.81, 44.79 4.18, 2.87 -18.6 C-39.04 -41.39, -92.09 -70.47, -92.87 -67.49 C-93.65 -64.52, -17.17 -12.28, -1.81 -0.74" stroke="#ff6633" stroke-width="4" fill="none"></path></g></g><mask></mask><g stroke-linecap="round"><g transform="translate(2293.5846398665126 1896.497308144617) rotate(0 -176.51968188113096 91.48432529559523)" fill-rule="evenodd"><path d="M1.97 0.87 C-57.46 34.89, -283.23 162.46, -357.96 204.08 C-432.69 245.7, -453.6 257.75, -446.43 250.6 C-439.25 243.45, -362.94 191.86, -314.9 161.19 C-266.86 130.52, -210.12 96.67, -158.19 66.59 C-106.26 36.51, -45.27 3.16, -3.32 -19.27 C38.63 -41.71, 92.93 -71.63, 93.5 -68.05 C94.07 -64.46, 15.61 -9.14, 0.1 2.24" stroke="none" stroke-width="0" fill="#ff6633" fill-rule="evenodd"></path><path d="M0.02 -0.38 C-60.28 33.7, -286.83 163.88, -360.97 205.52 C-435.1 247.16, -452.62 256.62, -444.78 249.47 C-436.95 242.32, -361.65 192.86, -313.94 162.64 C-266.22 132.42, -210.36 98.17, -158.49 68.16 C-106.63 38.16, -44.7 5.16, -2.74 -17.37 C39.23 -39.9, 92.72 -69.83, 93.29 -67 C93.85 -64.16, 16.27 -11.45, 0.63 -0.36 M-1.43 -1.63 C-61.4 32.65, -284.63 162.33, -358.6 203.82 C-432.57 245.31, -452.68 254.56, -445.26 247.31 C-437.84 240.07, -362.15 190.13, -314.07 160.35 C-266 130.57, -208.95 98.38, -156.81 68.62 C-104.67 38.86, -42.97 4.64, -1.23 -18.21 C40.52 -41.06, 93.47 -71.37, 93.66 -68.48 C93.85 -65.6, 15.35 -12.56, -0.06 -0.9" stroke="#ff6633" stroke-width="4" fill="none"></path></g></g><mask></mask><g stroke-linecap="round"><g transform="translate(392.13709666014074 476.47780123902703) rotate(16.472020661929193 -47.36830989620921 72.20304331650914)" fill-rule="evenodd"><path d="M-0.23 -1.7 C49.24 -29.14, 271.18 -160.79, 296.81 -165.55 C322.43 -170.31, 188.5 -68.36, 153.53 -30.27 C118.56 7.81, 80.39 34.43, 86.99 62.93 C93.58 91.43, 156.11 120.93, 193.08 140.7 C230.04 160.48, 314.61 176.26, 308.75 181.59 C302.88 186.92, 204.4 180.7, 157.87 172.68 C111.34 164.67, 50.97 116.61, 29.57 133.49 C8.18 150.38, 28.16 231.46, 29.51 274 C30.85 316.53, 49.63 405.42, 37.64 388.71 C25.65 372, -22.75 215.37, -42.44 173.74 C-62.12 132.12, -63.56 138.39, -80.45 138.96 C-97.34 139.53, -105.97 147.19, -143.79 177.18 C-181.62 207.18, -293.43 313.17, -307.42 318.93 C-321.42 324.7, -256.32 247.52, -227.76 211.79 C-199.2 176.07, -153.06 127.66, -136.05 104.56 C-119.05 81.47, -105.6 78.67, -125.74 73.2 C-145.87 67.73, -210.54 77.34, -256.88 71.72 C-303.21 66.1, -411.62 43.91, -403.73 39.48 C-395.84 35.04, -260.69 50.63, -209.52 45.1 C-158.36 39.58, -110.28 34.67, -96.72 6.32 C-83.17 -22.04, -118.6 -82.46, -128.19 -125.03 C-137.78 -167.6, -162.01 -247.36, -154.25 -249.13 C-146.49 -250.89, -107.32 -177.13, -81.64 -135.62 C-55.95 -94.12, -13.41 -22.36, -0.14 -0.09" stroke="none" stroke-width="0" fill="#ff6633" fill-rule="evenodd"></path><path d="M-0.72 0.59 C48.51 -27.04, 270.58 -160.4, 295.98 -165.71 C321.39 -171.01, 186.77 -69.41, 151.71 -31.24 C116.65 6.94, 78.82 34.51, 85.64 63.34 C92.45 92.17, 155.38 122.05, 192.6 141.74 C229.83 161.43, 314.98 176.43, 308.97 181.5 C302.95 186.57, 203.07 180, 156.49 172.17 C109.9 164.34, 50.29 117.31, 29.46 134.52 C8.63 151.72, 30.58 232.51, 31.5 275.38 C32.42 318.26, 47.37 408.93, 35 391.78 C22.62 374.64, -23.42 214.9, -42.76 172.53 C-62.09 130.15, -64.23 137.22, -81.01 137.52 C-97.78 137.82, -105.55 144.29, -143.39 174.3 C-181.23 204.32, -293.76 311.12, -308.04 317.62 C-322.32 324.12, -257.77 249.12, -229.09 213.29 C-200.4 177.45, -153.25 126.18, -135.93 102.61 C-118.6 79.05, -105.12 76.61, -125.15 71.9 C-145.19 67.2, -209.79 79.43, -256.15 74.38 C-302.51 69.32, -411.12 46.55, -403.32 41.57 C-395.52 36.59, -260.3 50.1, -209.36 44.51 C-158.42 38.92, -111.77 36.47, -97.67 8.03 C-83.58 -20.41, -115.41 -83.21, -124.79 -126.13 C-134.16 -169.05, -161.2 -247.88, -153.91 -249.49 C-146.63 -251.1, -106.68 -177.19, -81.06 -135.79 C-55.45 -94.4, -13.79 -23.86, -0.21 -1.11 M1.1 -0.15 C50.19 -27.64, 270.45 -159.51, 295.44 -164.51 C320.43 -169.5, 185.91 -68.18, 151.06 -30.11 C116.22 7.95, 79.11 35.22, 86.35 63.89 C93.59 92.55, 157.26 122.38, 194.52 141.88 C231.77 161.38, 316.17 176.04, 309.87 180.91 C303.57 185.77, 203.06 178.78, 156.71 171.05 C110.36 163.32, 52.83 117.36, 31.78 134.54 C10.73 151.73, 29.82 231.28, 30.4 274.15 C30.98 317.02, 47.38 409.09, 35.28 391.78 C23.17 374.46, -23.13 212.74, -42.23 170.26 C-61.33 127.78, -62.42 135.85, -79.33 136.9 C-96.23 137.96, -105.41 146.54, -143.65 176.61 C-181.89 206.68, -294.59 311.23, -308.79 317.3 C-322.99 323.37, -257.81 248.6, -228.87 213.02 C-199.92 177.44, -152.2 127.26, -135.12 103.8 C-118.04 80.34, -106.05 77.06, -126.4 72.27 C-146.76 67.48, -210.91 80.17, -257.27 75.09 C-303.63 70, -412.12 47.08, -404.57 41.78 C-397.01 36.48, -262.97 49.09, -211.94 43.29 C-160.92 37.48, -112.48 35.45, -98.42 6.96 C-84.36 -21.52, -118.29 -85.3, -127.58 -127.63 C-136.87 -169.96, -161.63 -245.6, -154.16 -247.05 C-146.68 -248.49, -108.64 -177.23, -82.72 -136.29 C-56.8 -95.35, -12.15 -24.27, 1.34 -1.41" stroke="#ff6633" stroke-width="2" fill="none"></path></g></g><mask></mask><g stroke-linecap="round"><g transform="translate(407.884144804013 651.1149465640337) rotate(0 238.6595776871718 480.255125764661)" fill-rule="evenodd"><path d="M-0.42 1.14 C5 39.02, 6.48 117.03, 32.39 226.79 C58.3 336.56, 103.11 550.49, 155.03 659.74 C206.96 768.99, 290.06 832.61, 343.95 882.29 C397.85 931.97, 480.12 967.08, 478.42 957.84 C476.73 948.59, 378.43 869.97, 333.79 826.83 C289.16 783.69, 246.29 765.77, 210.62 698.99 C174.94 632.21, 145.62 505.18, 119.77 426.14 C93.92 347.1, 71.33 290.81, 55.52 224.77 C39.71 158.73, 34.23 67.72, 24.91 29.88 C15.59 -7.96, 3.57 2.48, -0.42 -2.27" stroke="none" stroke-width="0" fill="#ff6633" fill-rule="evenodd"></path><path d="M0.77 -0.65 C6.47 37.03, 7.64 116.54, 33.5 226.67 C59.35 336.81, 104.36 551.19, 155.91 660.16 C207.46 769.13, 289.28 830.71, 342.79 880.49 C396.29 930.27, 478.95 968.09, 476.93 958.86 C474.91 949.62, 375.39 868.35, 330.69 825.08 C285.98 781.8, 244.05 765.57, 208.7 699.22 C173.35 632.87, 144.12 505.69, 118.59 426.99 C93.05 348.28, 71.25 293.3, 55.47 226.99 C39.68 160.68, 33.3 67.02, 23.87 29.13 C14.45 -8.76, 3.06 4.66, -1.08 -0.37 M-0.29 1.63 C5.34 39.43, 6.68 118.13, 32.67 228.01 C58.65 337.89, 103.93 552.02, 155.61 660.91 C207.3 769.8, 288.92 831.55, 342.75 881.34 C396.59 931.14, 480.46 969.21, 478.61 959.69 C476.77 950.18, 376.61 867.84, 331.67 824.26 C286.74 780.69, 244.61 764.49, 209.02 698.24 C173.43 632, 143.48 505.5, 118.13 426.8 C92.79 348.1, 72.52 292.34, 56.97 226.05 C41.42 159.77, 34.56 66.69, 24.85 29.09 C15.13 -8.52, 2.68 4.99, -1.33 0.43" stroke="#ff6633" stroke-width="4" fill="none"></path></g></g><mask></mask><g stroke-linecap="round"><g transform="translate(944.2906022036022 1590.2794661029457) rotate(348.6078775895473 -63.643599082545734 249.02830005225678)" fill-rule="evenodd"><path d="M2.23 0.58 C-62.62 70.61, -432.6 344.58, -390.33 421.61 C-348.06 498.64, 191.15 533.15, 255.83 462.76 C320.52 392.37, 40.76 76.72, -2.2 -0.75" stroke="none" stroke-width="0" fill="#ff6633" fill-rule="evenodd"></path><path d="M0.22 -0.37 C-64.5 69.54, -429.92 341.96, -387.54 418.8 C-345.17 495.64, 190.07 530.34, 254.5 460.68 C318.93 391.02, 41.59 77.56, -0.96 0.85 M-1.12 -1.61 C-65.99 68.46, -430.45 342.55, -388.02 419.78 C-345.6 497.01, 188.99 531.92, 253.46 461.75 C317.93 391.58, 40.86 75.52, -1.22 -1.26" stroke="#ff6633" stroke-width="2" fill="none"></path></g></g><mask></mask><g stroke-linecap="round"><g transform="translate(621.3471922455628 1699.9082206753574) rotate(348.6078775895473 -177.45492628768534 -92.20495343302355)" fill-rule="evenodd"><path d="M-0.17 -0.5 C-59.98 -34.09, -286.39 -162.11, -360.74 -203.58 C-435.08 -245.06, -454.15 -256.04, -446.23 -249.37 C-438.3 -242.71, -361.42 -194.06, -313.2 -163.62 C-264.98 -133.17, -208.7 -96.92, -156.89 -66.72 C-105.09 -36.52, -44.56 -5.02, -2.39 17.59 C39.78 40.19, 95.48 71.77, 96.1 68.92 C96.72 66.06, 16.95 12.05, 1.31 0.47" stroke="none" stroke-width="0" fill="#ff6633" fill-rule="evenodd"></path><path d="M0.89 -1.07 C-59.29 -35.21, -286.31 -164, -360.84 -205.2 C-435.37 -246.4, -454.11 -255.53, -446.3 -248.28 C-438.5 -241.03, -362.05 -191.86, -314.02 -161.7 C-265.99 -131.55, -210.17 -97.29, -158.14 -67.34 C-106.11 -37.38, -43.67 -4.45, -1.83 18.04 C40 40.53, 92.5 70.46, 92.87 67.59 C93.24 64.71, 16.05 12.11, 0.39 0.78 M-0.1 0.98 C-60.5 -32.96, -288.1 -162.05, -362.07 -203.91 C-436.04 -245.77, -451.89 -257.43, -443.91 -250.17 C-435.93 -242.92, -362.13 -190.97, -314.19 -160.37 C-266.25 -129.78, -208.05 -96.17, -156.27 -66.58 C-104.49 -36.99, -45.06 -5.06, -3.51 17.15 C38.04 39.36, 92.51 69.4, 93.03 66.69 C93.54 63.97, 15.02 11.68, -0.42 0.85" stroke="#ff6633" stroke-width="4" fill="none"></path></g></g><mask></mask><g stroke-linecap="round"><g transform="translate(1153.5798577446567 1614.285025267489) rotate(348.6078775895473 177.66958226337738 -92.5180018420424)" fill-rule="evenodd"><path d="M-0.42 1.14 C59.51 -32.94, 285.13 -163.01, 359.43 -204.97 C433.73 -246.93, 452.95 -257.97, 445.36 -250.61 C437.76 -243.25, 361.73 -191.21, 313.85 -160.81 C265.97 -130.41, 209.51 -98.33, 158.07 -68.21 C106.63 -38.08, 46.99 -2.63, 5.23 19.94 C-36.53 42.51, -91.99 70.62, -92.49 67.21 C-92.98 63.79, -13 10.86, 2.27 -0.57" stroke="none" stroke-width="0" fill="#ff6633" fill-rule="evenodd"></path><path d="M-0.53 -0.48 C59.21 -34.28, 285.17 -162.5, 359.35 -203.87 C433.53 -245.24, 452.33 -255.77, 444.54 -248.7 C436.75 -241.62, 360.26 -191.59, 312.61 -161.43 C264.96 -131.28, 210.4 -97.76, 158.63 -67.75 C106.86 -37.75, 44 -3.94, 2 18.61 C-40.01 41.15, -92.89 70.68, -93.4 67.52 C-93.92 64.36, -16.49 11.05, -1.08 -0.37 M1.39 -1.78 C61.43 -35.82, 287.29 -164.04, 361.56 -205.55 C435.83 -247.06, 455.18 -257.8, 447.01 -250.81 C438.84 -243.82, 360.75 -194.22, 312.54 -163.62 C264.32 -133.02, 209.33 -97.49, 157.73 -67.21 C106.13 -36.94, 44.64 -4.29, 2.92 18.01 C-38.79 40.31, -92.23 69.74, -92.55 66.58 C-92.88 63.43, -14.53 10.07, 0.99 -0.9" stroke="#ff6633" stroke-width="4" fill="none"></path></g></g><mask></mask><g stroke-linecap="round"><g transform="translate(679.6317890743903 2241.8821338690923) rotate(348.6078775895473 -177.79815718631198 92.318385581656)" fill-rule="evenodd"><path d="M-0.88 -0.25 C-60.86 33.43, -286.33 161.45, -360.3 203.24 C-434.27 245.02, -452.64 257.32, -444.7 250.44 C-436.76 243.56, -360.92 192, -312.68 161.96 C-264.43 131.92, -207.08 100.09, -155.23 70.22 C-103.39 40.34, -43.49 5.63, -1.61 -17.29 C40.27 -40.21, 95.95 -69.95, 96.07 -67.3 C96.19 -64.65, 14.9 -12.84, -0.87 -1.37" stroke="none" stroke-width="0" fill="#ff6633" fill-rule="evenodd"></path><path d="M-0.96 0.85 C-61.06 35.12, -286.95 163.65, -361.12 205.15 C-435.28 246.64, -454.11 256.95, -445.95 249.82 C-437.78 242.7, -360.03 192.57, -312.12 162.42 C-264.21 132.26, -210.06 98.79, -158.46 68.89 C-106.86 38.99, -44.39 5.69, -2.53 -16.97 C39.33 -39.64, 92.45 -69.76, 92.72 -67.1 C92.99 -64.44, 14.53 -12.15, -0.94 -1 M0.74 0.25 C-58.93 34.19, -284.2 161.98, -358.83 203.25 C-433.46 244.52, -454.34 254.45, -447.03 247.85 C-439.72 241.25, -363.34 193.36, -314.96 163.67 C-266.58 133.98, -208.49 99.94, -156.76 69.73 C-105.03 39.51, -46.16 4.85, -4.57 -17.6 C37.02 -40.05, 91.83 -68.21, 92.8 -64.98 C93.76 -61.75, 16.97 -8.75, 1.21 1.79" stroke="#ff6633" stroke-width="4" fill="none"></path></g></g><mask></mask><g stroke-linecap="round"><g transform="translate(1173.268021115453 2124.588896375657) rotate(348.6078775895473 176.6829639513153 92.40929249587407)" fill-rule="evenodd"><path d="M0.01 -1.48 C60.32 32.9, 286.64 164.3, 360.95 206.04 C435.26 247.78, 453.45 255.91, 445.87 248.95 C438.3 242, 363.35 194.39, 315.52 164.31 C267.68 134.24, 210.57 98.95, 158.85 68.51 C107.13 38.07, 47.45 4.45, 5.2 -18.32 C-37.06 -41.09, -94.05 -71.42, -94.67 -68.11 C-95.3 -64.8, -14.27 -9.44, 1.43 1.53" stroke="none" stroke-width="0" fill="#ff6633" fill-rule="evenodd"></path><path d="M-0.81 0.43 C59.31 34.52, 285.17 163.92, 359.71 205.42 C434.25 246.92, 454.34 256.48, 446.43 249.41 C438.53 242.33, 360.37 193.08, 312.29 162.98 C264.2 132.88, 209.67 99, 157.93 68.82 C106.19 38.64, 43.95 4.64, 1.84 -18.12 C-40.27 -40.88, -94.41 -70.72, -94.74 -67.74 C-95.06 -64.76, -15.84 -11.63, -0.08 -0.25 M0.97 -0.39 C61.57 33.28, 287.89 161.79, 362.1 203.66 C436.31 245.54, 454.58 258.01, 446.24 250.87 C437.9 243.74, 360.31 191.08, 312.05 160.87 C263.78 130.66, 208.23 99.66, 156.67 69.62 C105.11 39.58, 44.56 3.24, 2.69 -19.35 C-39.19 -41.95, -93.94 -69.06, -94.58 -65.95 C-95.22 -62.85, -17.2 -11.62, -1.15 -0.72" stroke="#ff6633" stroke-width="4" fill="none"></path></g></g><mask></mask></svg>
